<?xml version="1.0" encoding="utf-8"?>
<!-- Generator: Adobe Illustrator 19.0.0, SVG Export Plug-In . SVG Version: 6.00 Build 0)  -->
<svg version="1.1" xmlns="http://www.w3.org/2000/svg" xmlns:xlink="http://www.w3.org/1999/xlink" x="0px" y="0px"
	 viewBox="0 0 612 792" style="enable-background:new 0 0 612 792;" xml:space="preserve">
<style type="text/css">
	.st0{fill:#AED5AF;}
	.st1{fill:#FFFFFF;stroke:#000000;stroke-width:2;stroke-miterlimit:10;}
	.st2{fill:#110606;stroke:#000000;stroke-width:3;stroke-miterlimit:10;}
	.st3{fill:#A8CCA9;stroke:#FFFFFF;stroke-width:6;stroke-miterlimit:10;}
	.st4{fill:#3C3C3C;}
	.st5{fill:none;stroke:#FFFFFF;stroke-width:6;stroke-linecap:round;stroke-miterlimit:10;}
</style>

<g id="Capa_4">
	<path class="st1" d="M718.5,369.8"/>
	<g>
		<path d="M718.5,371c0,0,7.7,7,10.1,12c0,0,1.5-1,1.2-2.8c0-0.2,0-0.3,0-0.3c0.4,0,3.3,6.3,3.4,9.9c0,0,14.8,21.9-7.8,32.4
			c0,0-12.1-8.8-12.4-20c0,0-7.9,10.9,1,20c0,0-19.9-3.3-13.6-25.6c0,0-0.6,3.3,3.9,8c0,0-3.1-8.2,2.4-19.3c0,0,0.5,3.1,1.1,3.9
			c0,0,0.1,0,0.1,0C709.3,389.3,720.9,377.2,718.5,371 M711.3,360.3l4.4,11.7c0.9,2.5-3,8.3-6.1,11.8l-1.4-8.3l-4.1,8.4
			c-2.3,4.7-3.3,9-3.5,12.5l-3.1-0.7c-2.2,8-1.7,14.7,1.7,20c4.9,7.7,13.9,9.3,14.3,9.4l9.1,1.5l-6.4-6.6c-2.5-2.6-3.3-5.3-3.4-7.8
			c3.9,7.3,10.4,12.1,10.8,12.4l1.4,1l1.6-0.7c7.3-3.4,11.8-8.2,13.5-14.4c2.6-9.5-2.5-19-4.1-21.6c-0.2-2.2-1-4.7-1.7-6.4
			c-1.5-3.9-2.5-5.5-4.6-5.5h-1.4l-0.1,0.2c-3.2-4-7.2-7.7-7.8-8.3L711.3,360.3L711.3,360.3z"/>
	</g>
</g>
</svg>
